<?xml version="1.0" encoding="UTF-8"?>
<svg id="Capa_1" data-name="Capa 1" xmlns="http://www.w3.org/2000/svg" viewBox="0 0 925.54 925.54">
  <defs>
    <style>
      .cls-1 {
        fill: none;
        stroke: #000;
        stroke-miterlimit: 10;
        stroke-width: 11px;
      }
    </style>
  </defs>
  <g>
    <path d="M436.88,327.91c-.35,4.46-.56,8.25-.66,12.27l-.34,13.17-.48,7.13c-1.69,12.36-1.52,24.45-2.27,36.91l-.63,10.53-1.22,13.85-.64,7.72-.4,13.68-1.57,21.47-1.21,26.67c-.08,1.71-1.35,3.8.16,5.45,5.88,6.46,8.07,8.06,3.98,16.05l-4.02,7.86c-1.87,3.66-2.67,5.93-2.88,10.1l-.65,12.5-.72,11.15-.66,7.66c-.47,5.48-.44,10.59-.71,16.08l-.73,15.31-.58,10.53-1.36,13.17c-.45,4.35,6.98,1.05,12.14,2.66,3.51,1.09,5.13,3.59,5.13,7.15l-.02,16.67c0,2.44-3.49,5.45-5.88,5.44l-24.92-.08c-.62,0-1.87-1.14-2.65-.42-.45.42-.97,1.5-1,2.43-.17,4.88-1.74,9.22-2.6,13.82-.82,4.34-2.15,7.9-3.35,12.11l-1.85,6.47-4.03,12.04c-1.28,3.83-2.23,7.37-4.86,10.5-4.93,5.85-12.79,8.49-19.85,4.81-5.63-2.93-10.16-8.8-10.13-15.42.03-5.54,3.16-10.41,4.69-15.42l2.47-8.07c2.42-7.91,4.3-15.62,5.63-24.17-2.74.87-4.33,1.55-6.65,1.54l-27.86-.09c-1.03-.08-2.17-1.77-3.77-1.22l1.69,8.94,5.53,20.28,5.62,15.79c1.31,7.63-3.88,14.81-10.94,18.19-7.88,3.77-18.53-.65-21.4-9.18l-7.89-23.42-1.82-6.59-3.02-11.67-2.14-10.45c-.17-.82-.83-1.71-1.39-1.99-.45-.23-1.49,1.22-2.03,1.22l-23.45.06c-2.15,0-5.83-2.59-5.86-4.74l-.23-18.12c-.02-1.4.42-3.71,1.48-4.53,3.26-2.51,7.31-2.86,11.22-1.85,5.86,1.52,3.32-9.72,2.6-19.41l-.87-11.8-1.41-29.2-1.84-20.4c-.4-4.42.51-8.95-.67-13.25-2.17-7.89-9.37-14.76-8.38-20.21.6-3.31,2.84-6.43,5.3-8.37,3.15-2.48-.43-27.24-.96-36.98l-.69-12.56c-.5-9.22-.09-18.14-.96-27.24l-1.2-12.53-.66-8.41-.52-10.13c-.59-11.57-1.18-22.85-2.33-34.51-.32-3.29-.43-6.58-.55-9.82l-.82-21.61-1.35-16.74-.7-9.07c-.64-8.2-.36-16.05-1.11-24.19l-1.59-17.2c-.98-10.63-.09-22.29-1.37-32.63-.19-1.57-.16-3.72-2.57-3.71l-19.06.1-1.55,17.42-2.97,27.66c-.47,4.39-1.75,8.46-1.69,12.99.09,6-1.34,11.62-1.88,17.51l-1.71,18.78c-.81,8.92-2.07,17.39-3.06,26.3l-4.01,36.27-1.65,17.84-2.86,27.72-1.96,12.02c-1.39,8.55-.9,17.05-2.5,25.65-.57,3.05-.34,6.07-.7,9.09l-1.32,11.2c-.92,7.77-1.69,15.14-2.31,22.91-.54,6.77-2.19,13.17-2.26,20-.06,5.81-1.91,11.31-2.34,17.06l-.89,11.84-2.57,24.46-2.08,18.13-1.27,11.85c-.37,3.49-.97,6.63-1.22,10.03-.83,11.28-2.41,22.08-3.59,33.39l-3.04,29.15-2.07,18.2-2.33,23.45-1.11,10.05c-.11.96-.12,1.82-.64,2.43-.55.65-1.61,1.25-2.81,1.01l-11.17-2.21c-4.39-.87-9.2.31-13.46-.99-1.28-2.33.42-4.89.51-7.23.36-8.89,1.52-17.08,2.5-25.82l2.68-24,1.83-20.03,2.87-24.3,1.95-17.5c.76-6.81.99-13.35,2.25-20.05l1.28-14.09c.85-9.37,2.02-18.33,3.04-27.63l2.74-24.95,1.47-11.72,1.78-20.21,3.69-30.56c.83-6.9,1.25-13.45,1.98-20.4l2.62-25.12,2.21-15.99c.95-6.88.27-13.76,1.71-20.51,1.73-8.07,1.89-18.59,3.55-29.4.75-4.86.46-9.42,1.08-14.28l2.05-16.1,3.25-29.28c1.18-10.66,2.21-20.81,3.34-31.46l2.23-20.84,1.67-17.44c.67-7.05,1.76-13.74,2.21-20.78.22-3.49.81-7.01,2.01-10.46h506.55c2.33,1.44,2.16,3.69,2.4,6.08l2.66,26.56,3.17,28.91c.79,7.18,1.77,14.03,2.36,21.29l.9,11.2c.73,9.13,2.7,17.85,2.89,27.04l1.51,11.73,1.98,18.47c.75,7.02,1.53,13.69,2.22,20.73l2.32,23.83c.34,3.48,1.03,6.49,1.37,9.85l2.46,24.34,3.31,27.93,2.07,19.54,1.75,16.72,1.31,13.3c1.16,11.76,2.94,22.96,3.49,34.75l1.93,12.71,2.8,27.25,4.36,39.7,1.94,18.94,5.08,46.32,2.41,22.72.75,7.65,2.31,19.55c.79,6.68-7.71,2.03-19.93,5.29-2.16.58-5.95,2.06-7.74.04-2.12-2.4-.84-6.53-1.2-9.51l-4.04-33.33-2.18-23.71-2.1-13.2-.95-13.49-2.26-21.61-2.65-20.9-1.72-17.13-2.64-23.34-2.92-29.2-2.16-20.85c-1.05-10.16-2.52-19.91-3.46-30.07l-2.17-23.52-1.46-7.62-1.64-19.26c-.64-7.55-2.04-14.72-2.18-22.26l-1.8-11.39-4.55-45.84-2.41-19.58-2.26-20.26-1.5-17.42c-1.51-7.76-2.06-15.13-2.8-23.06l-2.41-25.62-2.54-18.28c-.17-1.21-.32-2.17-1.13-2.89-.7-.62-1.6-.44-2.82-.4l-16.99.58-.42,12.94-1.71,18.48-.41,14.43-.66,7.73-.71,10.47-.63,9.81c-.33,5.22-.28,10.12-.68,15.36l-1.79,23.14-.35,12.4-.72,10.47-.71,9.06-.58,9.13c-.67,10.61-1.37,20.74-1.48,31.4l-.76,10.43-.65,9.81-.74,11.83-.68,9.09-.69,13.94-.72,9.07-.63,8.39-.78,17.46-.75,13.8-1.33,14.51c-.22,2.42-.72,4.4,1.5,6.15s3.68,3.84,3.75,6.38c.08,2.67-.92,5.32-2.69,7.35-3.94,4.51-4.33,8.97-4.61,14.62l-2.23,45.63-.93,10.18c-.12,1.31-1.25,2.39-.73,3.7.47,1.19,1.63,2.1,3.45,2.1l8.25.02c2.89,0,5.49,2.3,5.47,5.49l-.11,19.81c-.01,1.87-3.43,4.23-5.16,4.23h-24.33c-.76,0-1.95-.71-2.48-.52-2.46.85-2.04,16.25-7.13,28.46-2.15,5.16-9.38,8.43-14.66,7.45-6.3-1.17-12.62-9.24-11.84-13.55l3.4-18.83c.24-1.3.02-3.46-1-4.03-1.18-.66-2.62,1-3.54,1.06l-40.16-.02-3.65-.63c-2.07,11.37,6.67,19.76,1.65,28.35-1.11,1.89-3.23,3.43-4.7,4.87-3.88,3.82-8.96,3.65-13.44,1.52-4.59-2.18-7.27-5.42-8.42-10.42l-4.16-18.03c-.56-2.41.17-4.9-1.8-6.98-1.54,1.04-3.44,1.45-5.4,1.43l-20.25-.11c-3.25-.02-6.51-2.93-6.44-6.53.11-5.15.82-10.19-.33-15.49l1.93-5.53c6.25-3.7,11.53-.79,14.03-3.15.85-.8.27-1.8.33-2.9.52-9.19-1.1-17.75-1.52-26.9l-1.76-38.75-5.17-8.99c-2.09-3.63-1.13-8.03,1.68-10.83,1.96-1.95,1.09-3.7,1.07-5.87-.13-13.77-1.26-27.1-2.1-40.93-.55-8.99-.39-17.6-1.7-26.55l-.69-11.87c-.56-9.69-1.43-18.88-1.41-28.62l-1.39-15.33-.87-16.58-1.15-26.71-1.98-18.04-.8-21-1.66-26.2c-.97-15.32-1.36-30.2-3.03-45.59l-.97-22.41c-.06-1.29.19-2.35-.59-3.27-.59-.69-1.55-1.19-2.94-1.18l-34.74.34c-1.69.02-.5,3.49-.59,4.57l-1.01,11.26c-.72,7.98-.93,17.75-1.47,26.65l-.84,14.02-.73,16.73-.62,10.48-1.91,23.98ZM339.29,503.33l20.85-.28c6.51-.09,12.69-.39,18.96,1.06,4.73,1.09,6.87,4.15,9.01,8.42l7.38,14.76c.3.59.95.96,1.28,1s1.23-.3,1.49-.8l11.25-21.47c1.77-3.38,3.82-7.05,6.16-9.85l1.96-24.13c.52-6.4.79-12.43.99-18.85l.47-14.62,1.66-14.24,1.17-23.45.56-11.18,1.85-24.41c.8-10.57.62-20.77,1.49-31.36l1.56-18.87.79-16.77,1.58-24.27.51-16.2.61-11.88,1.48-13.82c.43-4.05,1.28-8.06-.3-12.15l-166.66.08,1.17,14.75,1.05,17.08.6,13.32c.35,7.84,1.24,15.39,1.66,23.33l.6,11.18,1.28,20.65.61,12.58.8,10.4c.35,12.74,1.56,25.11,2.35,37.96l.56,9.1.75,14.66c.27,5.19.05,10.18.88,15.37.64,4,.58,7.86.77,11.87l.76,16.04.74,9.04c.29,3.59.25,6.88.56,10.52l1.15,13.4.44,14.38c.55,1.88,2.85,3.33,3.82,5.17l14.78,27.91,7.41-12.55c2.11-3.58,3.21-7.84,6.78-10.48l6.4-1.87c5.43-1.59,12.49-.47,17.98-.54ZM535.74,544.8c6.09-2.73,10.26-7.28,14.23-12.02,2.85-3.41,7.72-3.51,11.77-3.38l13.34.44,10.49-.27c17.2-.45,15.08.97,22.4,8.56,2.3,2.38,4.66,3.77,7.3,5.45,4.89,3.13,11,3.65,15.55-.45,5.04-4.54,10.46-10.41,10.83-17.21l.95-17.47.54-13.17,2.02-27.39.85-21.31,1.7-18.47,1.62-31.44,1.52-28.5.67-11.84,2.52-33.56.94-20.97,1.39-17.46.7-18.14.64-11.87c.5-9.27,3.93-32.16,1.15-33.97-.8-.52-1.5-.41-3-.41l-162.27.05c-2.01,1.57-.57,3.53-.48,5.14l.71,12.45.68,9.78c.58,8.3.42,16.14,1.47,24.41.31,2.49.43,5.19.62,7.67l.66,8.61c.28,14.44,1.48,28.5,2.27,43l.53,9.83.78,13.22.6,7.79c.23,2.99.62,5.98.78,8.96l.67,12.56.47,15.34c.14,4.58.56,8.77.94,13.32l.69,8.33.68,9.09.78,18.83.72,11.81,1.42,14.65.67,14.68.38,11.65,1.42,19.02c.15,2-.13,4.41-.16,6.23,2.12,5.78,6.01,10.66,9.85,15.31,3.66,4.43,9.55,5.56,15.01,3.11ZM312.84,589.71c-.65-8.29-.89-16.4-.41-24.84.09-1.65.07-3.34-.61-5.13-2.62,2.1-4.31,5.24-7.68,6.17-4.84,1.34-10.78-.92-12.86-5.29l-4.09-8.56c-.27-.57-1.02-.68-1.33-.58s-.86.88-.71,1.55c2.05,9.56,2.09,27.35,3,39.73l.62,8.36.85,17.31c1.56,1.2,2.95,2.04,5.13,2.38,1.5-12.14,9.09-22.82,18.1-31.11ZM400.93,611.23l2.32,8.29c.37,1.31,3.18.51,3.97-.12,1.03-.82,2.05-2.13,1.8-3.79l-.6-3.96c1-4.98,1.45-9.58,1.71-14.61l1.37-26.3.86-19.77-5.82,10.02c-2.24,3.86-6.09,5.58-10.43,5.31-3.52-.22-6.56-2.77-9.51-6.32-2.09,3.53-.04,7.23-.29,10.46-.42,5.3-.78,9.9.11,15.34.18,1.09-1.83,3.23-.38,4.73l7.91,8.19,6.98,12.54ZM518.84,619.29c2.79.06,4.89.16,7.17.89l4.7-7.62c3.83-6.2,8.44-11.39,14.53-15.32,2.69-1.74,3.24-4.5,2.17-7.47-.72-2.01.81-4.58.59-6.72-.74-7.09-1.14-13.83-.26-20.78.09-.72-.57-1.53-1-1.65-1.52-.45-2.96,2.14-8.3,3.12l-9.44,1.73c-5.28.25-9.85-2.99-14.56-4.5-2.21.46-.44,3.61-.39,4.82l.69,15.03c.31,6.77.61,12.96.91,19.65l.67,14.68c.07,1.52.45,4.1,2.5,4.14ZM637.14,601.28l1.37-25.31.21-15.1c-5.6,2.61-11.09,5.69-16.78,4.4l-10.23-2.32c-1.89-.43-3.31-2.68-6.04-2.08l.1,34.23,9.13,7.46c5.69,4.65,9.16,11.2,11.83,18.49,3.65-2.75,6.69-.69,8.5-2.65.84-.91.65-2.06.76-3.27l1.15-13.82ZM366.61,620c-1.98-3.02-5.1-3.94-8.56-3.9l-21.49.27c-1.83.02-3.73.98-3.79,3.04l28.79-.02,5.06.61Z"/>
    <circle cx="576.81" cy="495.61" r="28.91"/>
    <circle cx="349.17" cy="467.75" r="31.92"/>
  </g>
  <rect class="cls-1" x="0" y="0" width="925.54" height="925.54"/>
</svg>