<?xml version="1.0" encoding="UTF-8"?>
<svg id="Capa_1" data-name="Capa 1" xmlns="http://www.w3.org/2000/svg" viewBox="0 0 925.54 925.54">
  <defs>
    <style>
      .cls-1 {
        stroke-width: 11px;
      }

      .cls-1, .cls-2 {
        fill: none;
        stroke: #000;
        stroke-miterlimit: 10;
      }

      .cls-2 {
        stroke-width: 14px;
      }
    </style>
  </defs>
  <g>
    <g>
      <rect class="cls-2" x="70.84" y="703.23" width="783.86" height="23.64"/>
      <rect class="cls-2" x="450.47" y="327.18" width="28.14" height="651.84" transform="translate(-188.59 1117.62) rotate(-90)"/>
      <rect class="cls-2" x="104.4" y="668.96" width="720.38" height="24.38"/>
    </g>
    <g>
      <path class="cls-2" d="M845.1,321.54c2.2-.22,3.05,1.65,3.02,2.75-.12,5.07-12.16,1.7-17.18,1.7l-737.46.03c-5.93,0-11.28,3.67-15.5-2.75l30.64-8.86,50.6-16.52,84.35-28.07,103.47-34.18,107.64-35.81c5.78-1.92,7.66-1.33,13.28.51l115.2,37.7,49.82,16.1,70.68,22.76,23.42,7.9,46.84,15.15,46.25,15.04,13.02,3.54c3.84,1.04,6.81,3.5,11.91,2.99Z"/>
      <rect class="cls-2" x="104.35" y="332.28" width="720.41" height="24.73"/>
      <rect class="cls-2" x="138.63" y="365.89" width="651.83" height="24.47"/>
      <path class="cls-2" d="M765.37,610.29l1.07,17.57c.09,1.48.39,3.85-.74,5.33-.85,1.11-2.65,2.51-5.07,2.51l-38.16.09c-3.04,0-5.24-1.13-7.92-3.22l1.73-73.88,1.04-50.14.81-47.24.54-43.9.6-11.09c.18-3.3,2.36-5.87,5.62-5.85l29.8.25c3.08.03,4.6,5.24,4.56,7.79l-.18,12.11c1.56,8.95.57,17.22.78,26.04l1.31,52.56c.1,4.2,2.51,7.66,2.14,12.51l-.99,12.89c2.02,10.41,1.91,19.48,1.33,29.97l1.38,15.69.35,40.01Z"/>
      <path class="cls-2" d="M632.94,626.62c.06,2.33,1.08,5.11.09,6.73-.73,1.19-3.02,2.42-5.2,2.42l-39.34-.05c-2.36,0-4.33-1.13-5.42-2.12-2.13-1.93-1.3-4.4-1.26-7.07l.64-42.32.95-92.39,1.55-7.83.6-43.98c.15-11.39.95-22.12.01-33.44-.18-2.2,1.96-5.83,4.25-5.83l30.68-.11c3.36-.01,4.45,2.94,4.53,5.73l1.46,52.43c.13,4.84,2.1,9.34,1.33,14.54-.84,5.7.66,11.28.8,16.83l.64,25.89,1.18,49.29.99,16.85.94,19.09.6,25.32Z"/>
      <path class="cls-2" d="M499.74,629.51c.19,3.9-1.42,6.11-4.77,6.13l-35.89.22c-3.1.02-8.26.12-10.28-2.61l-.29-62.98c-.02-3.88,1.22-7.25,1.28-10.88l.77-47.05.71-45.93,1.48-6.24.24-55.52c0-2.33,2.55-4.28,5.08-4.21l30.41.75c5.22.13,3.03,9.04,3.17,12.5l1.09,27.29c.24,6.09,1.71,11.77.93,17.99-.76,6.06.85,11.92,1.03,17.84l.87,28.75.96,27.5,1.29,27.51.93,48.86,1,20.1Z"/>
      <path class="cls-2" d="M227.79,588.83c.36,10.37,1.74,19.55.58,29.33l.4,14.99c.06,2.35-5.5,2.71-7.63,2.7l-37.11-.09c-2.17,0-4.23-1.09-5.3-2.21-1.67-1.75-1.04-4.03-.99-6.51l.9-39.66,1.48-94.24,1.14-48.98.63-36.63c.04-2.06,1.64-6.03,3.66-6.7l30.46-.24c8.17-.06,4.92,17.76,6.17,30.82.67,7,.23,13.52.47,20.35l.91,25.18,1.2,31.11,1.1,26.34,1.03,28.72.88,25.72Z"/>
      <path class="cls-2" d="M365.82,606.77c-1.22,14.75,3.61,23.24.45,26.75-1.11,1.24-3.17,2.23-5.33,2.23l-40.27-.12c-10.22-.03-3.82-13.95-4.96-30.68-.45-6.65.86-12.82.97-19.25l.78-46.41,1.34-128.19c.04-3.92.29-10.25,5.48-10.23l30.27.12c3.57.01,4.41,6.74,4.5,9.25l.86,24.42,1.65,49.87,1.04,26.43.76,27.93.44,24.15.78,27.57c.15,5.16,1.74,10.09,1.24,16.15Z"/>
    </g>
  </g>
  <rect class="cls-1" x="0" y="0" width="925.54" height="925.54"/>
</svg>