<?xml version="1.0" encoding="UTF-8"?>
<svg id="Capa_1" data-name="Capa 1" xmlns="http://www.w3.org/2000/svg" viewBox="0 0 925.54 925.54">
  <defs>
    <style>
      .cls-1 {
        fill: none;
        stroke: #000;
        stroke-miterlimit: 10;
        stroke-width: 11px;
      }
    </style>
  </defs>
  <g>
    <path d="M536.95,512.6l1.15,25.02c2.69,16.81,3.54,32.96,5.12,49.91,1.23,13.2,2.95,25.65,3.25,38.82l2.81,25.11.79,14.98c.43,8.08,7.54,2.93,21.22,4.47,2.73.31,7.63,4.4,7.64,7.62l.11,54.78c0,4.41-4.52,8.08-8.11,8.08l-215.29-.14c-5.25,0-8.92-2.51-8.93-7.99l-.12-55.73c6.89-12.45,22.78-4.43,25.86-6.45,1.18-.77,3.29-2.4,3.21-4.6-.36-9.66,1.83-18.57,2.68-28.11l1.41-15.84c1.06-11.88,1.91-23.07,2.86-34.95l2.24-28.02,3.14-25.94c-.03-9.44-.01-18.56,1.93-27.76,2.57-12.18,1.53-27.15,2.91-35.13,2.66-15.43,2.76-30.38,4.27-45.84l3-30.65c.33-3.33.91-5.36-3.44-7.18-9.78-4.09-20.29-12.71-21.46-24.28l-.17-38.45c-.02-4.05,5.94-4.77,8.51-4.12,3.42.86,5.74,3.64,5.72,7.72l-.1,18.38,32.65.38c1.71.02,3.22.64,4.68-.16s2.28-2.38,2.22-4.63l-.42-16.31c-.1-3.81,3.75-5.24,6.74-5.49s7.82,1.35,7.86,4.99l.19,18.77c.04,3.95,4.39,2.69,6.7,2.69l26.19.05c2.03,0,3.74.7,5.14-.5,3.13-2.67-.47-14.26,2.32-22.48,1.39-4.08,9.24-4.58,11.81-1.89,3.08,3.21,2.37,7.38,2.28,11.31l-.25,10.6c-.09,3.74,4,3.01,6.45,3.01l27.23-.04c2.01,0,5.44.04,5.47-2.86l.18-16.81c.02-2.37,1.34-4.78,2.66-5.69,1.76-1.21,4.81-1.69,6.83-.95,5.39,1.97,5.53,7.71,5.43,12.62l-.56,27.83c-.05,2.53-.68,5.75-1.94,7.88l-4.82,8.15c-3.26,5.51-10.32,7.75-15.92,10.69-2.97,1.56-2.71,3.67-2.55,6.84l.55,11.38c2.44,11.1,1.85,21.88,3.15,33.06l3.18,27.55.93,15.04c.65,10.59,1.79,20.72,3.44,31.27ZM405.93,373.79l107.33.43c16.68.07,23.63-9.55,18.97-12.03-.9-.48-2.47.42-4.22.42l-130.48-.02c-1.64,0-6.9-.98-5.71,2.42,1.44,3.81,8.58,8.76,14.11,8.78ZM504.48,388.7c-4.18,1.71-8.13.1-12.14.3-4.66.24-8.41-.05-13.12,0l-20.78.2c-6.24.06-12.09-.93-18.35-.06-11.81,1.65-20.39-1.79-23.34.41-1.64,1.22-3.84,22.09-3.94,31.95-.02,1.81-1.58,7.01,1.97,7.03l58.56.41,36.97-.21c2.96-.02,2.86-4.22,2.78-6.14-.63-14.42-.72-37.11-8.61-33.89ZM520.9,504.64l-.59-9.79c-1.98-8.06-2.74-15.65-3.32-23.81l-1.77-24.96c-.35-4.86-6.34-3-9.3-2.99l-51.51.1-35.77-.17c-2.71-.01-7.97-1.05-8.22,2.79l-1.2,18.93-2.44,23.49-1.84,14.36c-.25,1.93-.72,3.61.27,4.78,1.57,1.85,2.9,1.55,5.29,1.55l103.66.02c2.05,0,3.58,1.28,4.91-.17.88-.96,1.93-2.25,1.82-4.12ZM514.67,591.12c4.59,0,8.95.08,12.17-1,2.52-.85,1.09-5,.92-6.66l-2.99-29.86c-.9-9.03-.8-26.03-4.56-28.46-2.06-1.33-3.73.18-6.15.18h-103.33c-2.49-.01-4.11-1.3-5.93.11-2.36,1.82-3.16,19.83-3.96,29.83l-1.1,13.68c-1.1,13.71-4.76,21.61.67,21.8l12.13.43,102.13-.07ZM530.56,670.73c2.51,0,3.74-.22,4.41-1.13.42-.56.88-1.99.5-2.95-2.01-5.09-1.72-9.95-2.06-15.25l-1.04-15.99-2.74-25.88c-.2-1.93-.38-2.98-1.68-4.18-1.16-1.08-2.11-.1-3.96-.09l-127.43.15-3.04,27.18-1.56,16.77c2.14,11.74-5.65,21.3,1.58,21.31l137,.06ZM560.35,725.46c2.58,0,3.08-3.91,3.08-5.36l-.14-28.47c-.01-2.19-1.69-4.16-3.01-4.93s-3.19.53-5.25.53h-192.44s-.16,35.01-.16,35.01c0,1.86,2.22,3.33,4.22,3.33l193.69-.11Z"/>
    <path d="M471.09,328.57c.02,3.82-4.77,6.61-7.38,7.07-2.73.49-8.77-2.34-8.77-6.35l-.16-69.32c0-2.34.08-3.9-1.67-5.26-1.36-1.06-3.02-.88-5.17-.44-12.65,2.55-18.31-4.61-20,5.36l-4.18,24.8c-1.12,6.61-2.02,12.63-3.05,19.17l-3.93,24.89c-.53,3.38-5.18,6.85-8.16,6.96-3.86.15-6.22-2.95-7.29-5.09-1.65-3.3-.65-6.86.81-9.84,3.02-6.12,1.73-12.94,2.99-19.32,1.66-8.4,3.26-16.22,4.15-24.7s7.38-23.8.08-22.45c-7.4,1.37-15.32,1.81-19.52-2.16-1.61-1.52-3.72-5.93-1.7-8.5l50.11-40.47,22.55-18.48c1.14-.93,4.25.22,5.16.97l13.88,11.32,42.56,34.1,13.13,10.89c1.75,1.45,2.64,3.01,2.76,4.75.29,4.29-4.44,8.54-9.98,8.45l-15.29-.24c-.79,8.04,2.98,15.01,3.7,22.4.85,8.7,2.14,16.61,3.97,25.07,1.35,6.22.48,13.01,3.3,19.01,1.45,3.09,1.94,6.7.16,9.87-1.29,2.29-4.94,5.31-8.21,4.37-7.95-2.27-7.78-10.03-8.66-16.56l-3.42-25.59c-1.45-10.84-4.73-20.89-5.49-32.02-.19-2.77-2.03-7.41-5.04-7.22-5.71.35-10.95,1.57-16.57.25-1.68-.39-3.33-.28-4.27.28-1.88,1.12-1.73,3.27-1.72,5.42l.29,68.6ZM506.14,237.41c-2.37-3.68-6.92-6.35-10.23-9.02l-22.11-17.82-11.23-8.16-10.09,7.74-33.56,26.46c.94,3.61,3.85,1.71,5.77,1.7l75.43-.03c1.52,0,5.44,2.3,6.02-.88Z"/>
    <path d="M548.5,282.58c-4.49,1.37-9.42,2.33-13.58,1.71s-6.85-3.7-7.12-7.04c-.94-11.99,17.43-9.09,23.49-10.28l18.85-3.72c7.4.61,13.53-1.61,20.24-2.68l30.13-4.78c9.74-1.55,19.12-2.25,28.87-4.25,5.89-1.2,11.87-.36,17.88-2.43,4.94-1.7,10.5-2.99,15.83-2.64,6.92.45,12.85-2.03,19.29-2.84,10.1-1.27,19.14-2.19,29.05-5.38,3.99-1.28,10.33,4.59,10.19,8.09-.93,2.82-3.37,5.98-5.55,7.44l-13.08,1.66c-9.18,2.84-18.29,3.28-27.65,4.61l-25.4,3.59c-10.68,1.51-20.56,3.99-31.47,4.74-5.82.4-11.51,3.12-17.69,3.02s-12.02,1.08-17.99,2.79c-3.31.95-7.06,1.02-10.5,1.55l-23.25,3.61c-6.81,1.06-13.42,1.04-20.54,3.22Z"/>
    <path d="M398.03,277.45c-1.42,6.8-8.87,8.09-14.67,6.55-8.99-2.38-17.43-3.98-26.62-4.55l-18.4-3.4c-7-1.29-13.91-1.38-20.89-3.15-6.82-1.73-13.71-1.53-20.44-2.7-7.23-1.26-13.7-2.76-21.02-3.05l-24.31-4.07c-6.94,0-12.67-1.84-19.31-2.84-11.11-1.67-21.74-2.67-32.87-5.36-4.2-1.02-10.3,2.82-15.58-8.57.69-3.23,5.25-9.09,9.51-8.02,10.12,2.55,19.61,4.06,29.99,5.13,4.72.48,9.18,2.95,14.14,2.75,7.55-.3,14.76.7,21.83,3.11,5.63,1.92,11.52.97,16.99,2.18,10.1,2.24,19.72,2.96,29.93,4.2,8.35,1.01,16.1,4.2,24.79,3.77,3.25-.16,6.54,2.14,9.53,2.38l17.74,1.46,17.06,3.78c6.85.01,14.49-.32,19.91,3.91,1.2.94,3.07,4.58,2.67,6.46Z"/>
    <path d="M228.09,329.77c-13.16,2.66-25.25,5.6-38.3,4.58-2.47-.19-5.54-4.29-5.65-6.45-.55-9.86,21.48-8.5,34.23-11.26,9-1.94,16.85-3.98,26.11-4.06l22.08-3.5c7.68.27,14.66-3.31,22.07-3.69,9.72-.51,18.63-2.55,27.97-3.73,9.87-1.25,18.95-2,28.6-4.81,5.36-1.56,11.81.3,17.27-1.72,7.84-2.9,15.59-4.31,24.08-4.18,4.16.06,6.68,2.94,7.49,6.76,2.1,9.86-19.93,11.81-33.52,12.09l-12.1,2.7c-7.6.32-14.64.93-21.86,3.27-5.72,1.86-11.88,2.09-17.93,2.01-4.1-.06-7.79,2.06-11.51,2.36-11.83.94-22.93,3.24-34.68,5.23-6.61,1.12-13,.05-19.57,2.66-4.27,1.7-9.64.71-14.78,1.75Z"/>
    <path d="M740.96,326.75c1.04,4.84-4.08,8.57-8.79,8.09l-16.56-1.69c-10.11-2.91-20.05-3-30.23-4.91-7.17-1.34-13.85-1.95-21.05-3.03l-35.45-5.33c-6.68-1-12.58-2.68-19.54-2.62l-24.11-4.2c-6.57.03-12.12-1.73-18.52-2.72-13.4-2.06-34.71-1.46-34.83-11.13-.04-2.82,1-7.37,4.55-7.86,9.03-1.25,17.72.64,26.21,3.4,6.18,2.01,12.6.82,18.88,2.17,9.55,2.06,18.66,4.73,28.75,3.94,8.72,3.36,17.72,2.97,26.84,4.44l23.13,3.74,20.29,3.45c9.12.25,17.03,2.68,26.05,3.96l24.7,3.53c3.77.54,8.5,1.2,9.7,6.76Z"/>
    <path d="M277.45,730.25c-7.83-5.37-19.93,13.67-33.9,10.86-14.75-2.97-20.16-17.93-31.1-8.94-6.52,5.35-16.48,11.51-22.43,8.48-1.99-1.02-5.34-4.23-5.78-6.71-.89-5.1,4.63-8.66,9.24-8.52,3.06.09,5.79-1.35,7.88-3.37,10.02-9.67,25.76-10.23,35.99-.33,4.03,3.9,10.65,5.77,15.41,1.81,4.24-3.54,8.79-5.96,13.71-8.22,3.8-1.75,6.07-1.97,10.17-.95,6.35,1.59,11.75,3.77,16.67,8.2,4.73,4.27,11.35,3.61,15.64-.68,3.47-3.46,7.75-5.07,11.92-7.02,5.29-2.46,9.58-1.6,13.52,2.78,1.68,1.87,2.71,4.03,1.58,6.67-3.11,7.25-10.28,2.43-19.54,10.86-7.64,6.95-17.95,8.17-27.15,3.18l-11.82-8.11Z"/>
    <path d="M741.4,732.39c1.1,3.87-3.79,6.35-4.89,8.05-4.3,1.68-8.15,1.16-11.6-.99-10.78-4.34-15.96-15.48-26.67-6.91-13.45,10.76-23.67,12.26-37.59.47-5.56-4.71-11.24-4.64-16.85-.03-6.41,5.26-14.73,9.92-23.33,7.83-10.92-2.65-13.43-10.45-24.36-11.47-3.2-.3-5.97-3.39-6.51-5.74-.8-3.51.87-6.23,3.58-8.2,3.88-2.83,7.44-2.15,11.53-.41s8.06,3.2,11.48,6.52c4.32,4.18,10.83,5.68,15.8,1.59,5.66-4.66,12.39-9.23,20.43-9.07,4.84.1,12.16,2.92,15.61,6.17,6.51,6.13,13.62,7.23,20.22,1.23,10.36-9.42,26.27-9.19,36.24.53,3.17,3.1,6.31,3.2,10.61,3.88,2.09.33,5.58,4,6.3,6.53Z"/>
    <path d="M730.17,683.44c5.32-.88,10.97,1.82,11.28,6.93.23,3.69-3.68,7.7-7.32,7.89-6.76.36-13.39-2.2-17.97-6.76-5.99-5.95-14.03-5.65-19.95-.12-10.41,9.73-25.84,8.61-35.82-1.26-3.89-3.85-11.92-4.27-15.79-.52-10.35,10.01-25.96,11.53-35.9,2.33-7.2-6.66-16.93-4.15-18.24-11.26-.61-3.3.82-6.27,3.69-8.27,3.6-2.52,6.83-2.5,10.49-.23l14.74,9.14c3.42,2.12,6.97,2.62,10.19.54,8.73-5.67,17.9-13.04,27.36-9.94,13.4,4.38,16.99,15.34,27.81,9.17l16.55-9.43c7.25-4.13,19.87,5.1,28.88,11.8Z"/>
    <path d="M262.77,692c-9.53,8.59-23.56,8.09-32.51-.33-6.52-6.13-14.74-6.05-21.22.2-4.6,4.44-11.69,7.55-18.24,6.08-2.75-.62-5.73-4.29-6.53-7.02-.64-2.16,2.47-6.52,4.65-6.8,4.43-.59,7.83-1.43,11.33-4.04,7.53-5.6,16.56-11.23,24.85-8.01,12.4,4.82,18.42,15.54,27.94,8.75,9.51-6.77,18.89-13.35,28.03-7.92l15.04,8.95c3.22,1.91,6.54,1.72,9.56-.18l15.34-9.63c2.34-1.47,5.5-2.2,8.23-.97,1.93.87,4.69,2.92,5.65,5.97,1.62,5.14-2.96,10.18-8.33,10.21-2.83.02-5.31,1.04-7.31,2.9-11.25,10.48-24.08,11.37-35.41,1.14-6.71-6.06-14.53-5.2-21.06.69Z"/>
  </g>
  <rect class="cls-1" x="0" y="0" width="925.54" height="925.54"/>
</svg>