<?xml version="1.0" encoding="UTF-8"?>
<svg id="Capa_1" data-name="Capa 1" xmlns="http://www.w3.org/2000/svg" viewBox="0 0 925.54 925.54">
  <defs>
    <style>
      .cls-1 {
        fill: none;
        stroke: #000;
        stroke-miterlimit: 10;
        stroke-width: 11px;
      }
    </style>
  </defs>
  <g>
    <path d="M404.55,597.6c-2.36.2-5.31-1.13-6.79.95s.73,4.54.77,6.55c.34,16.93,1.78,33.19,3.51,50.05.49,4.81,1.54,8.88,5.68,12.3l58.33,48.25c8.5,7.03,15.87,15.37,15.56,27.3-.2,7.52-4.41,16.14-10.13,20.8-13.28,10.8-27.68,10.91-40.82.3l-32.2-25.99-37.48-30.27c-9.31-7.52-17.01-16.25-22.11-27.3l-13.59-36.38c-2.83-.2-3.54,2.15-5.02,3.64-9.08,9.17-20.14,16.41-27.35,27.37l-25.82,39.25-16.06,24.67c-3.97,6.1-7.42,10.66-13.94,14.01s-12.08,4.22-19.32,2.23c-9.27-2.55-15.78-9.53-19.81-18.2-3.54-7.62-2.23-14.32,1.6-21.84l67.11-131.51,22.84-45.35c-1.85-6.9-5.85-12.43-9.61-18.6-15.5-25.47-31.64-52.75-53.13-72.95-5.89-5.54-11.89-11.05-20.26-12.88-4.18-.91-10.75-1.91-15.08-.16l-77.22,31.17c-8.37,3.38-21.64-3.71-28.84-12.17l-10.75-12.64c-10.65-12.53-8.12-30.02,4.53-40.5l29.35-24.32,28.64-23.51c5.83-4.79,11.12-9.63,17.14-14.19,4.8-3.64,9.37-7.4,13.46-11.77,1.65-1.76.46-3.39.45-5.26v-43.98c.32-2.25,2.79-5.13,4.35-6.67,1.77-1.75,5.67-1.76,7.63-.44l16.59,11.23c10.6,7.17,17.86,21.72,24.35,32.85,2.01,3.45,7.29,3.18,10.37,4.32l7.24,2.68c14.43,5.35,28.05,11.91,41.82,18.75l8.17,4.61,7.1-8.93c5.34-6.71,12.7-9.97,21.19-10.84l13.87-3.41c8.05-1.98,16.35-3.29,24.2-5.38,5.87-1.56,11.79-2.03,17.56-4.24l9.6-1.53c6.28-2.31,10.27-7.39,13.84-12.66l18.56-27.38c6.1-9,13.65-15.65,22.33-21.92,8.22-5.94,16.93-9.53,27.02-11.16,2.94-.47,5.6-1.72,8.79-1.87l13.84-.64c5.15-.24,8.76.82,13.35,2.37,4.02,1.36,7.72,1.97,11.69,4.06,10.98,5.79,21.11,13.19,27.39,24.71l54.61,100.2c4.03,7.39,1.16,17.09-2.56,23.37-4.26,7.19-10.17,12.05-16.25,17.54-1.54,1.4-4.65,1.44-5.48,4.63l59.09,1.26c13.93.3,26.71,7.95,37.73,15.71l14.81,13.94c.86.81,31.56-2.09,52.02,3.06l13.86,3.49,21.85,8.35c22.74,10.77,41.76,26.29,56.84,46.42,11.22,14.98,20.14,31,26.86,48.47l4.94,12.83c1.68,4.36-5.77,11.86-10.39,9.41-19.12-16.53-48.68-42.08-73.52-42.96l-10.93-.39c-7.8-.27-15.78,1.69-23.31-.31l-11.81-3.14c-14.89-3.95-27.42-16.2-28.33-16.02-.78.15-1.52,1.52-1.45,2.5.54,8.36-1.71,15.66-4.47,23.32-4.79,13.25-13.06,24.23-23.78,33.84l9.02,11.05c7.28,8.92,16.19,16.48,27.15,20.55,9.16,3.41,15.64,9.47,19.94,18.22l22.83,46.51,8.83,17.22,9.26,19.44c1.83,3.84,1.77,6.22.74,10.44-4.47,18.3-20.66,28.58-37.51,22.8-8.06-2.77-13.38-9.02-17.57-16.08l-25.23-42.49-12.67-20.48-27.04-5.99c-7.03-1.56-13.44-4.51-19.66-8.26-2.77-.01-1.34,4.22-1.42,5.82-.42,8.83,1.25,19.01-3.31,27.2l-4.03,7.23-52.53,69.68c-8.83,11.71-22.09,17.16-36.7,12.72-10.74-3.26-19.69-13.35-22.43-24.24-2.2-8.75-.77-16.56,4.04-23.77l35.71-53.47c4.67-6.99-.09-17-1.87-23.81l-4.2-16.04-2.85-11.21-5.22-17.96c-3.04-6.09-8.21-5.88-13.78-6.28-10.62-.76-20.71-.38-31.24-.15-9.93.22-19.1,1.59-28.88,2.53s-20,2.85-30.2,3.69l-23.97,1.99ZM497.35,383.36l-53.34,37.96c-8.15,5.8-16.26,11.95-18.87,22.29-1.49,5.93-2.12,14.18.22,20.07l32.3,81.22c2.12,5.33,7.3,7.78,12.38,8.07,7.17.41,11.85-3.73,14.17-9.92,1.3-3.46.59-5.46-.42-9.19l-2.56-9.5-12.14-35.56c-1.55-4.54-2.61-9.11-4.68-13.47-3.81-7.99-2.71-16.49,2.26-23.41,1.8-2.5,3.15-4.59,6.05-6.09l16.58-8.59c25.19-13.05,65.82-32.74,84.04-51.55,4.65-4.81,6.49-11.98,3.1-18.27l-29.49-54.63-8.12-14.55-11.25-20.9c-4.42-8.21-10.45-15.85-19.05-20.12-2.81-1.39-7.1-4.07-10.25-4.4-10.07-1.04-20.41-1.77-30.34-.18-15.45,2.47-29.19,10.89-38.01,23.61l-21.72,31.33c-8.4,12.11-14,16.26-29.48,19.66l-17.07,3.76-16.41,3.65-16.81,3.88c-10.07,2.33-23.35,3.2-23.08,14.19,19.11,19.88,25.07,10.49,39.29,8.92,5.99-.66,11.06-2.19,16.79-3.35l17.96-3.63,17.01-3.59c9.56-2.02,16.36-4.61,22.61-12.05l41.09-48.97c1.67-1.99,4.13-3.34,6.11-3.4,5.42-.17,11.07,7.96,9.02,10.56l-9.65,12.31,8.24,16.3,25.33,45.78c1.17,2.12,2.7,4.48,2.14,6.66-.42,1.61-1.76,3.54-3.97,5.11ZM525.48,725.59c-3.97,5.83-3.59,14.14.23,18.68s7.91,7.2,12.84,7.24c4.44.03,9.95-1.43,13.09-5.57l51.59-68.04c2.78-3.66,5.86-8.84,5.69-13.22-.28-7.28-.74-13.87-.03-21.09,3.04-31.03,15.09-57.76,39.09-78.04,13.95-7.64,24.92-19.56,29.91-34.59,3.1-9.35,3.41-18.57,3.28-28.15l-.27-18.83c-2.75-27.75-24.2-50.41-51.56-54.91-3.95.92-7.09-.52-10.72-.53l-77.93-.15-56.87,30.02c-4.14,2.19-6.32,5.74-4.24,10.06l3.6,11.16c1.11,3.44,2.15,6.47,3.34,9.81l4.52,12.73,7.95,23.52c2.18,6.46,3.6,15.08,1.42,21.74-3.06,9.35-10.24,16.97-19.05,20.44-7.09,2.79-17.66,2.31-23.68-.95-7.45-4.03-12.84-10.09-15.95-17.89l-26.41-66.31-4.75-11.68-3.11-10.86c-1.19-4.17-1.2-9.68.03-13.98l3.42-11.94c.49-1.71,4-5.46.83-6.42-5.17,0-11.28,1.12-16.74.12l-13.29-2.42c-24.17-6.24-41.13-28.8-62.84-42.27l-9.7-.78c-14.93-5.37-17.15-17.56-21.85-20.53-14.91-9.43-30.7-16.84-46.98-23.5-4.21-1.72-8.17-2.8-12.32-4.19-8.88-2.96-17.75-3.92-19.99-9.18-3.85-9.04-7.65-17.61-14.71-24.64-1.87-1.87-3.6-5.98-6.37-6.5-2.66-.19-1.31,3.69-1.3,5.13l.14,26.04c.03,4.61-.73,8.11-4.4,11.12l-70.92,58.2-22.5,19.31c-4.67,4.01-5.21,11.07-1.03,15.73l14.78,16.48c4.43,4.93,12.33,1.6,17.51-.51l11.26-4.58,34.98-14.4,19.3-7.7c14.59-4.8,29.77-2.17,42.11,7.4,10.63,8.24,19.87,17.94,28.69,28.43l19.86,27.62,17.42,27.89c7.16,11.47,12.68,22.26,17.03,35.18l33.63,99.84,9.95,28.44c4,8.43,9.73,15.55,16.95,21.4l29.72,24.1,15.65,12.28,25.55,20.48c6.18,4.95,16.65,4.2,21.13-2.65s1.06-14.9-4.9-19.74l-17.8-14.48-39.79-32.92c-10.72-8.86-16.14-21.06-15.84-34.72l-.95-14.65c-.42-6.46-1.47-12.44-1.78-18.91l-1.2-25.52c-.19-4.03,3.35-8.53,7.67-8.07,13.3,1.41,25.89-.09,39.11-1.65,8.37-.99,16.28-1.18,24.67-3.4,3.69-.98,8.47-.89,12.33-1.18l23.56-1.77,26.76.12,14.16,1.59c10.87,2.01,19.18,11.22,21.8,21.81l3.95,15.95,3.01,10.91,3.72,13.78,2.17,9.92c5.7,12.9.88,22.79-6.91,34.21l-30.75,45.11ZM361.3,396.21c6.72,5.52,13.46,9.87,21.37,12.31,3.98,1.23,7.5,2.99,11.94,2.99l35.5.02,49.14-35.52c.96-.7,1.96-1.98,2.18-2.77.25-.88-.71-2.24-1.88-2.77l-11.24-21.46-14.71-25.89-25.84,30.12c-6.23,7.26-20.62,14.11-29.76,14.58-4.84.25-8.16,1.56-12.61,2.51l-19.34,4.15c-5.91,1.27-11.48,1.43-17.32,3.85-1.86.77-4.87-.89-7.06,1.74l19.64,16.14ZM824.93,535.9c1.49.14,1.57-2.76.7-4.02l-7.47-10.87c-7.83-11.4-15.91-21.75-26.64-30.97-27.09-23.29-64.34-33.58-100.32-30.81,3.59,7.85,5.45,13.99,5.72,22.05,8.25,15.68,22.75,28.46,40.81,31.45l32.12.51c7.57.12,14.65,2.54,21.71,4.86,12.15,3.99,23.09,8.89,33.35,17.8ZM319.02,626.03c.5-3.07-1.44-4.91-1.99-6.86l-3.25-11.44-4.5-12.76-10.54-30.47c-.39-1.13-.38-2.66-1.87-2.73-1.34-.06-1.46,1.12-2.15,2.48l-80.43,158.01c-3.06,6.01-.18,12.7,4.36,15.37,5.28,3.11,11.89,2.33,15.64-3.27l21.86-32.66,17.42-26.85c5.65-8.7,11.81-16.04,19.29-23.33l26.16-25.5ZM746.18,718.88c3.79-3.51,5.88-8.3,3.5-13.07l-24.53-49.21-10.93-21.9c-2.74-5.48-4.57-11.21-9.75-15.06-12.74-5-24.64-12.12-33.94-22.28l-15.19-16.61c-12.49,10.97-20.74,24.43-25.06,39.98-.39,1.41-2.14,3.58-.36,4.98,7.98,6.3,17.36,10.29,27.33,11.89l17.32,2.78c2.71.44,7.97.08,9.77,3.05l44.03,72.83c4.04,6.69,12.44,7.59,17.81,2.61Z"/>
    <path d="M455,205c0,28.4-23.03,51.43-51.45,51.43s-51.45-23.02-51.45-51.43,23.03-51.43,51.45-51.43,51.45,23.02,51.45,51.43ZM438.56,204.89c0-19.31-15.66-34.97-34.99-34.97s-34.99,15.66-34.99,34.97,15.66,34.97,34.99,34.97,34.99-15.66,34.99-34.97Z"/>
  </g>
  <rect class="cls-1" x="0" y="0" width="925.54" height="925.54"/>
</svg>