<?xml version="1.0" encoding="UTF-8"?>
<svg id="Capa_1" data-name="Capa 1" xmlns="http://www.w3.org/2000/svg" viewBox="0 0 925.54 925.54">
  <defs>
    <style>
      .cls-1 {
        fill: none;
        stroke: #000;
        stroke-miterlimit: 10;
        stroke-width: 11px;
      }
    </style>
  </defs>
  <path d="M289.54,774.49h-49.54s-52.24-.03-52.24-.03l-42.73-.23c-6.2-.03-10.31-6.6-10.16-11.87.18-6.54,4.62-11.13,11.25-11.94l11.11.22c2.43.05,6.34.77,8.54-1.1,19.04-16.2,39.46-29.94,61.86-41.32,49.32-25.22,102.97-38.03,158.4-41.72l70.93-257.77c-19.75,3.67-38.11,4.84-56.97,2.98-15.44-1.56-29.77-5.49-43.7-12.06-17.77-8.86-32.51-21.74-43-39.04-30.95,7.34-66.04,4.07-94.96-8.54-24.94-10.88-47.82-31.4-48.71-59.8-.3-9.63,1.1-19.12,6.4-27.15,3.03-4.59,6.84-8.8,11.56-12.11,66.09-46.29,144.17-74.28,224.9-79.31l30.84-.5c9.17-.15,17.66.62,26.83,1.4,16.85,1.43,33,4.15,49.55,7.69l3.72-11.53c1.53-4.75,2.89-9.32,5.4-13.66,3.43-5.94,11.04-7.77,17.01-4.35,2.18,2.8,3.32,6.34,2.85,10.02-1.11,8.59-3.69,16.63-6.7,25.22,89.37,28.6,168.43,93.44,215.5,174.27,13.72,23.55,24.96,48.03,32.71,74.11.78,2.62.54,6.61-.12,9.12-4.35,16.45-15.93,29.21-31.17,36.69-31.59,15.5-73.77,10.01-105.06-5.28-12.42-6.06-22.7-14.15-31.55-24.91-12.03,3.63-24.01,5.99-36.49,7.35l-9.79.53c-4.92.5-9.79.53-14.74-.28-9.1.18-17.49-1.5-26.22-3.69-22.67-5.68-41.83-17.57-56.95-35.52l-67.23,246.13c82.83,2.31,158.33,31.74,222.46,81.96,3.53,2.76,9.28,2,13.24,2.01l15.35.07c7.24.83,12.48,5.86,12.17,13.32-.14,3.36-.87,5.96-3.09,8.02-2.62,2.44-4.75,2.42-8.6,2.42l-212.67.11-160.18.06ZM318.2,310.15c6.87-9.07,13.28-16.66,20.41-24.56,17.68-18.67,37.37-34.6,58.99-48.62,22.25-14.43,45.29-25.91,70.26-37.34-16.69-2.45-32.89-3.24-49.08-2.28l-14.46.86c-68.27,5.88-141.48,29.87-197.26,70.81l62.42,27.59,48.73,13.54ZM401.05,338.83l62.47,14.24c1.88.43,3.38,1.5,5.3.21l39.34-141.21c-24.24,7.22-46.58,16.24-68.36,27.4-25.89,13.54-49.69,29.7-70.92,49.62-10.18,10.06-19.77,19.88-27.96,31.59,6.28,3.4,12.12,5.33,18.38,7.25,13.83,4.25,27.22,7.59,41.74,10.9ZM613.15,400.32l-1.65-22.28c-7.62-60.85-34.08-121.97-78.72-164.98l-41.63,147.4c7.68,5.24,15.28,9.21,23.47,12.93,30.65,13.91,64.83,20.86,98.53,26.93ZM699.5,417.55c17.79,3.2,34.97,6.15,52.91,7.99,3.14.32,5.97.56,9.32.02-33.01-85.62-103.96-158.22-185.45-199.57,14.35,21.64,26.87,42.8,36.63,66.07,14.94,35.72,23.25,73.49,24.81,112.07.31,1.99,1.48,2.66,3.2,2.95l8.92,1.53,49.67,8.93ZM273.21,322.37l-16.14-5.26c-11.15-3.63-21.8-7.69-32.34-12.9l-14.47-6.58c-5.65-2.57-10.61-5.98-16.97-7.75.08,16.09,14.49,28.93,27.67,36.22,19.16,10.58,40.97,15.98,62.91,15.26,8.49-.28,16.34-2,23.76-6.42-11.5-5.25-22.62-8.72-34.42-12.57ZM461.57,379.42c-3-2.26-6.17-2.85-9.97-3.45-40.38-6.42-79.26-17.43-118.22-32.13,2.17,8.61,7.17,14.87,12.83,20.66,16.3,15.06,37.8,22.04,59.72,24.6,17.64,2.06,40.28.32,55.64-9.69ZM614.63,427.46l-23.94-6.79-34.39-8.25c-15.35-3.68-29.87-7.92-44.2-14.5l-26.9-12.36c1.64,8.21,5.35,14.65,10.52,20.69,22.38,26.09,71.01,36.35,103.88,27.79,5.41-1.41,10.58-3.02,15.03-6.57ZM763.02,451.27l-10.79-1.65-28.48-4.08-85.13-14.1c5.1,14.27,21.17,23.83,34.81,28.6,19.32,6.75,39.72,9.2,59.89,5.82,11.41-1.91,22.33-6.06,29.7-14.6ZM434.48,692.04c-9.88-.82-18.91-1.56-28.79-1.04-4.57,10.62-5.61,30.98-15.47,35.46-4.39,2-9,1.6-12.39-1.31-3.43-2.93-4.09-7.6-2.98-12.11l5.32-21.73c-43.36,1.17-87.31,12.18-126.61,30.57-16.72,7.82-32.28,16.77-46.78,28.14l9.24.54h366.73s11.04-.57,11.04-.57c-47.02-32.48-103.24-53.3-159.31-57.96Z"/>
  <rect class="cls-1" x="0" y="0" width="925.54" height="925.54"/>
</svg>