<?xml version="1.0" encoding="UTF-8"?>
<svg id="Capa_1" data-name="Capa 1" xmlns="http://www.w3.org/2000/svg" viewBox="0 0 925.54 925.54">
  <defs>
    <style>
      .cls-1 {
        fill: none;
        stroke: #000;
        stroke-miterlimit: 10;
        stroke-width: 11px;
      }
    </style>
  </defs>
  <g>
    <path d="M293.77,813.21l-8.93-7.19c-13.62-12.72-26.58-25.75-38.8-39.93-14.86-17.25-28.62-34.78-40.82-54-11.21-17.66-19.53-36.5-23.97-56.93l-.95-5.33-1.22-9.8c-.87-6.93.15-13.91,1.28-20.8l1.1-6.75c10.47-53.41,54.61-93.78,108.59-99.84,68.42-7.69,131.02,42.98,137.57,111.94.95,9.95.81,19.53-1.35,29.59-4.74,22.13-13.9,42.51-26.35,61.45-12.17,18.52-25.71,35.58-40.37,52.17l-30.74,32.07c-4.96,5.17-21.27,19.39-25.64,18.57-3.63-.68-6.68-3.02-9.41-5.21ZM388,635.37c0-46.59-37.77-84.35-84.35-84.35s-84.35,37.77-84.35,84.35,37.77,84.35,84.35,84.35,84.35-37.77,84.35-84.35Z"/>
    <path d="M660.65,325.25c-5.23,3.8-11.76-3.13-17.58-8.24-6.9-6.06-13.11-12.21-19.18-19.06l-14.26-16.1c-9.91-12.33-19.4-24.53-27.23-38.37-7.54-13.32-15.9-35.39-14.7-49.85l.66-7.89,1.1-7.42c7.67-37.44,37.5-65.42,75.37-70.98l23.66-.25c15.21,2.44,29.16,7.61,41.44,16.8,16.07,12.02,27.7,28.49,33.3,47.75l2.72,14.39c1.28,6.79,1,13.07-.28,20.02-3.32,18.06-11.02,34.52-21.37,49.68-15.41,22.59-36.27,46.36-56.64,64.44l-7.01,5.09ZM717.63,195.17c0-33.41-27.09-60.5-60.5-60.5s-60.5,27.09-60.5,60.5,27.09,60.5,60.5,60.5,60.5-27.09,60.5-60.5Z"/>
    <path d="M400.01,792.89l-11.08,2.52-12.35,2.52-4.25-17.98c2.31-1.38,4.7-1.25,7.22-1.83l38.01-8.74,12.34-3.19,3.2,12.79,1.15,6.07-34.25,7.83Z"/>
    <path d="M554.32,345.43c-2.12.51-3.89,1.42-6.09,1.15l-4.42-18.24,9.84-2.32,47.95-11.18,4.25,18.53-47.55,11.1-3.98.96Z"/>
    <path d="M509.94,357.07l-25.55,7.82c-1.98,1.15-3.93,1.79-6.37,1.61l-6.15-17.45,27.53-8.7,17.48-4.93,12.98-3.39,2.86,11.81c.58,2.38,1.48,4.56,1,6.96l-6.04,1.43-17.74,4.84Z"/>
    <path d="M462.27,778.29l-5.14,1.11c-3.1.67-5.77,1.7-9.08,1.89.32-2.59-.57-4.48-1.16-6.69l-3.04-11.53,33.73-8.44,23.48-6.4,4.66,16.39c.12.43.58.91.58,1.18,0,.48-.64.89-1.3,1.06l-23.66,6.46-8.65,2.23-10.4,2.72Z"/>
    <path d="M576.37,743.67l-55.35,18.56c-1.8-.6-1.4-2.14-1.78-3.43l-4.35-14.7c18.96-5.41,36.88-11.36,55.32-18.42l5.62,14.02c.52,1.3,1.13,2.54.54,3.98Z"/>
    <path d="M538.7,545.26l-52.08-29.27,6.1-10.07c1.2-1.98,2.4-3.69,3.27-6.33l52.18,29.17-9.47,16.51Z"/>
    <path d="M603.89,732.18l-12.88,5.85-7.67-17.63c16.57-6.78,32.53-14.71,47.57-24.7.78-.94,1.36-1.65,2.75-2.15l11.3,15.37c-13.08,9.23-26.55,16.63-41.07,23.25Z"/>
    <path d="M474.45,508.1c-.55.91-2.77-.37-3.2-1.08-16.58-9.82-32.52-19.96-47.67-32.14l10.18-11.93c.68-.79.73-2,2.11-2.54,9.89,8.09,20.12,15.32,31.14,21.86l17.01,10.1-9.58,15.74Z"/>
    <path d="M601.07,583.24l-38.3-24.22-11.69-6.71,9.45-16.5c17.5,9.99,34.38,20.12,51.2,31.61l-10.67,15.81Z"/>
    <path d="M418.59,400.4l-14.05-13.11,8.53-7.86c8.13-6.63,16.89-11.81,26.27-16.54l18.78-8.7,7.11,17.93c-11.7,4.74-22.96,9.85-33.3,16.94-4.86,3.34-9.28,6.41-13.34,11.34Z"/>
    <path d="M656.91,698.81l-13.11-13.65c13.53-12.47,18.52-25.63,12.67-43.57l10.23-3.24,7.5-3.03,2.07,6.59,1.15,5.78c.99,4.98,1.04,10.33.02,15.34l-1.16,5.63c-1.89,9.2-7,17.3-13.43,23.98l-5.95,6.18Z"/>
    <path d="M651.21,630.83c-9.75-16.42-24.37-28.27-39.03-39.86l11.52-14.8c14.54,10.57,27.13,22.64,38.25,36.2l5.48,8.61-16.21,9.85Z"/>
    <path d="M412.39,464.74c-4.79-4.31-8.26-8.88-11.96-13.64-7.72-11.15-11.94-22.79-9.66-36.44.3-4.56,1.98-8.86,4.1-13.06l16.96,7.96c-7.39,16.53,1.59,29.62,13.78,41.66l-13.23,13.52Z"/>
  </g>
  <rect class="cls-1" x="0" y="0" width="925.54" height="925.54"/>
</svg>