<?xml version="1.0" encoding="UTF-8"?>
<svg id="Capa_1" data-name="Capa 1" xmlns="http://www.w3.org/2000/svg" viewBox="0 0 925.54 925.54">
  <defs>
    <style>
      .cls-1 {
        fill: none;
        stroke: #000;
        stroke-miterlimit: 10;
        stroke-width: 11px;
      }
    </style>
  </defs>
  <g>
    <path d="M660.84,741.21l-405.24-.07-24.09-21.23c-32.03-28.24-65.17-83.14-76.88-124.72l-5.79-20.56c-1.81-6.41-2.43-12.12-3.22-18.69-.95-7.88-4.23-14.89-4.45-23.09-.73-27.58-2.87-54.78,2.07-82.01l3.88-21.35c2.4-13.22,6.18-25.82,10.63-38.46,11.57-32.9,27.54-63.27,48.85-90.75,12.95-16.7,25.85-32,41.73-45.86-.55-3.88-4.14-5.32-5.43-7.87-1.83-3.63-3.79-7.15-5.17-10.83-9.16-24.5,15.04-51.11,34.15-51.12l383.83-.28c7.03,2.65,12.68,5.32,17.91,9.62,19.29,15.83,20.04,42.35,2,59.87l17.33,17.19c34.46,34.19,62.71,82.79,77.17,129.04l5.94,21.46,4.02,19.06,4.16,34.98c2.03,17.09,1.45,33.5-1.18,50.45-1.22,7.87.15,16.47-2.51,23.89-2.14,5.98-2.37,11.04-3.82,17.21-10.16,43.05-28.62,83.25-54.74,118.83l-23.67,29.32-19.92,19.78c-5.6,5.56-9.12,6.2-17.56,6.2ZM751.88,570.57l5.07-22.78,3.64-34.44c1.27-12.03,1.26-24.55-.06-36.65l-3.86-35.43c-.59-5.38-2.64-10.81-3.94-16.45-10.06-43.58-30.08-83.67-58.33-118.25-12.29-15.04-26.05-27.43-39.85-40.53-3.89-3.69-6.72-2.11-11.26-2.1l-69.52.15c-4.63,0-6.88-3.76-9.09-6.62-2.94-3.81-3.22-6.52-.47-10.56,2.26-3.32,5.48-7.27,10.62-7.27l73.11-.04c8.13,1.36,14.26-2.38,16.44-11.27,2.51-5.07-1.68-18.47-9.73-19.24l-383.81-.15c-7.16,0-10.48,8.92-10.72,13.9-.27,5.81.88,10.03,4.05,13.1,3.87,3.74,8.1,3.68,13.5,3.68l141.81.07c6.31,0,12.75,8.14,11.87,12.97-1.48,8.14-7.82,11.63-15.08,11.62l-135.02-.28c-4.63,0-7.1-1.18-11.25,2.31-45.86,38.63-79.36,89.97-95.38,147.86l-6.11,27.29c-1.9,8.5-2.97,15.88-3.24,24.75-.76,25.37-.72,50.28.73,75.59l3.39,15.38c10.69,62.28,43.4,118.83,92.33,159.5l401.87.04c19.04-17.17,34.78-35.57,48.8-56.48,14.71-22.67,25.86-46.46,34.72-72.06l4.78-17.63Z"/>
    <path d="M345.26,553.94l-47.1,45.44-15.3,14.62c-2.76,2.64-6.55,4.48-9.9,4.02-7.32-1-12.1-10-11.21-13.86,1.95-8.47,2.36-16.71,2.91-25.37l2.25-35.2c.73-11.39,2.45-22.15,3.1-33.68.53-9.31,1.07-18.14,1.01-27.56l2.43-22.85c1.07-10.06,1.71-19.73,1.95-29.79l.4-17.08c.09-3.77,2.57-7.83,4.96-10.62,2.65-3.1,6.76-3.49,10.5-2.83,3.64.64,5.77,3.83,8.23,7.29l29.07,40.85c4.07,5.72,8.88,10.32,12.03,16.66.73,1.47,2.85,2.62,3.98,2.69,1.19.08,14.06-6.54,17.44-12.11l-3.35-38.23c-.97-11.01-4.3-29.86-.75-33.52,4.54-4.69,11-6.13,17.03-8.02l31.5-9.87c7.82-2.45,19.14-5.37,27.84-7.52l13.7-3.38c8.7-.64,16.2-3.84,24.55-4.98,27.89-3.83,49.09-6.55,69.89,13.27,11.6,11.05,19.54,26.01,24.4,41.15,1.44,4.49,1.49,5.63,6.51,7.39l12.5,4.39c22.67,7.96,41.4,23.42,54.7,43.48l11.29,20.66,4.1,10.87,5.18,20.12c1.63,6.34,2.17,13.99.38,20.04-4.83,16.28-14.26,28.85-26.48,40.01-11.84,10.81-25.73,17.63-40.58,23.56l-18.3,5.69-20.86,3.26c-6.05.94-11.67,2.78-17.98,2.72l-46.72-.46c-5.37-.05-8.01-2.39-12.6,2.15-8.86,8.77-20.37,14.87-32.03,19.26-6.33,2.38-12.24,2.97-18.4,4.62-8.24,2.21-15.22,3.95-23.95,4.01-13.72.1-20.59,1.09-35.85-3.52-8.92-2.7-19.04-7.62-19.55-18.79-.24-5.39,5.76-10.86,9.42-14.69l22.63-23.76c-1.4-3.7-4.48-3.94-7.14-5.38l-27.84-15.14ZM401.8,438.19c16.1-7.15,31.75-14,48.71-18.89l19.65-5.67c7.86-2.26,15.61-3.34,23.68-4.9,17.46-3.38,28.22-4.37,46.15-3.78,3.63.12.73-6.05-.34-7.96-17.63-31.43-25.98-26.38-54.48-25.31-7.59.29-14.31,1.41-21.56,3.07l-19.56,4.48c-5.17,1.18-9.98,1.9-15.03,3.36l-21.41,6.19-11.56,3.47-15.26,5.62,4.42,42.1c.13,1.19-.2,3.17.71,3.58,1.62.73,9.73-2.61,15.9-5.35ZM333.23,533.31c6.92-6.53,12.47-6.67,19.56-2.09,21.9,14.17,45.53,24.78,69.97,34.22l19.11,6.29,14.79,3.5,24.11,4.71c28.88,5.64,74.89,2.75,102.97-6.65,22.13-7.41,45.06-21.23,53.3-43.27,3.67-9.81.23-19.97-2.22-29.44-9.13-35.35-36.76-60.27-72.35-68.22l-13.27-2.96-38.72.09c-6.18.01-11.6,2.32-17.4,3.2-21.24,3.21-53.8,13.64-73.65,22.74l-33.17,15.2c-14.5,6.64-27.65,14.56-41.08,23.07-2.1,1.33-4.76,2.37-6.77,1.61-1.54-.59-4.32-2.08-5.74-4.04l-32.86-45.4c-4.41,2.1-2.02,5.33-2.27,8.17l-1.9,21.45-2.54,40.25c-1.03,16.29-3.96,31.62-3.18,48.15.16,3.32-3,6.72-.65,11.06l21.41-20.38,22.54-21.28ZM405.37,611.25c8.07.24,14.22-1.59,21-3.75,8.25-2.63,17.35-2.95,24.9-9.94-16.72-3.55-31.46-7.78-46.1-14.74l-18.29,18.15-7.98,7.68c2.26,3.25,5.68,1.98,8.6,2.07l17.86.53Z"/>
    <path d="M576.64,500.23c-5.57,3.76-13.52,3.67-18.78.31-7.33-4.69-10.7-10.68-10.57-18.63.12-7.63,5.13-12.93,11.84-17.19,5.88-3.73,10.62-3.27,16.36.81,6.18,4.4,10.8,9.26,11.05,16.97.23,6.88-2.87,12.97-9.91,17.73Z"/>
  </g>
  <rect class="cls-1" x="0" y="0" width="925.54" height="925.54"/>
</svg>